<svg xmlns="http://www.w3.org/2000/svg" viewBox="0 0 1200 750" role="img" aria-label="איור מאמר">
  <defs>
    <linearGradient id="b3" x1="0" y1="0" x2="1" y2="1"><stop offset="0" stop-color="#0A2748"/><stop offset="1" stop-color="#07182C"/></linearGradient>
    <pattern id="p3" width="60" height="60" patternUnits="userSpaceOnUse"><path d="M60 0V60M0 60H60" fill="none" stroke="#fff" stroke-opacity="0.05"/></pattern>
  </defs>
  <rect width="1200" height="750" fill="url(#b3)"/><rect width="1200" height="750" fill="url(#p3)"/>
  <g stroke="#E7C879" stroke-opacity="0.5" stroke-width="1.5" fill="none">
    <path d="M300 250 600 375 900 250M300 500 600 375 900 500M600 155V375M600 375v220"/>
  </g>
  <g fill="#ffffff" fill-opacity="0.14">
    <circle cx="300" cy="250" r="52"/><circle cx="900" cy="250" r="52"/>
    <circle cx="300" cy="500" r="52"/><circle cx="900" cy="500" r="52"/>
    <circle cx="600" cy="155" r="40"/><circle cx="600" cy="595" r="40"/>
  </g>
  <circle cx="600" cy="375" r="76" fill="#E7C879"/>
  <circle cx="600" cy="375" r="98" fill="none" stroke="#E7C879" stroke-opacity="0.45" stroke-width="2"/>
  <circle cx="600" cy="375" r="126" fill="none" stroke="#E7C879" stroke-opacity="0.2" stroke-width="2"/>
</svg>
